<?xml version="1.0" encoding="utf-8"?>
<!-- Generator: Adobe Illustrator 24.3.0, SVG Export Plug-In . SVG Version: 6.00 Build 0)  -->
<svg version="1.1" id="_x32_" xmlns="http://www.w3.org/2000/svg" xmlns:xlink="http://www.w3.org/1999/xlink" x="0px" y="0px"
	 viewBox="0 0 800 800" style="enable-background:new 0 0 800 800;" xml:space="preserve">
<style type="text/css">
	.st0{stroke:#000000;stroke-width:7;stroke-miterlimit:10;}
	.st1{fill:#6E260E;stroke:#000000;stroke-width:7;stroke-miterlimit:10;}
	.st2{fill:#FFFFFF;stroke:#000000;stroke-width:10;stroke-miterlimit:10;}
</style>
<g>
	<path class="st0" d="M702.4,165L450.7,14C435.1,4.7,417.5,0,400,0s-35.1,4.7-50.7,14L97.6,165c-29.7,17.8-47.9,49.9-47.9,84.6
		v300.9c0,34.6,18.2,66.7,47.9,84.6l251.7,151c15.6,9.4,33.2,14,50.7,14s35.1-4.7,50.7-14l251.7-151c29.7-17.8,47.9-49.9,47.9-84.6
		V249.6C750.3,214.9,732.1,182.8,702.4,165z M391.5,769.9c-9.4-1.2-18.6-4.2-27.1-9.3l-251.7-151c-20.8-12.5-33.5-35-33.5-59.2
		V249.6c0-9.4,1.9-18.5,5.5-26.9l306.8,184V769.9z M93.2,208c5.3-7,11.9-13,19.6-17.6l251.7-151c10.9-6.6,23.2-9.8,35.5-9.8
		s24.6,3.3,35.5,9.8l251.7,151c7.8,4.6,14.4,10.7,19.6,17.6L400,392L93.2,208z M720.7,550.4c0,24.2-12.7,46.7-33.5,59.2l-251.7,151
		c-8.4,5-17.7,8.1-27.1,9.3V406.6l306.8-184c3.6,8.4,5.5,17.5,5.5,26.9L720.7,550.4L720.7,550.4z"/>
	<g>
		<path class="st1" d="M720.7,249.6v300.9c0,24.2-12.7,46.7-33.5,59.2l-251.7,151c-8.4,5-17.7,8.1-27.1,9.3V406.6l306.8-184
			C718.8,231,720.7,240.1,720.7,249.6z"/>
		<path class="st1" d="M391.5,406.6v363.3c-9.4-1.2-18.6-4.2-27.1-9.3l-251.7-151c-20.8-12.5-33.5-35-33.5-59.2V249.6
			c0-9.4,1.9-18.5,5.5-26.9L391.5,406.6z"/>
		<path class="st1" d="M706.8,208L400,392L93.2,208c5.3-7,11.9-13,19.6-17.6l251.7-151c10.9-6.6,23.2-9.8,35.5-9.8
			s24.6,3.3,35.5,9.8l251.7,151C694.9,195,701.5,201,706.8,208z"/>
	</g>
	<g>
		<path class="st2" d="M315.7,484c17.4,9.5,31.6,3.1,31.6-14.4c0-17.4-14.1-39.3-31.6-48.8c-17.4-9.5-31.6-3.1-31.6,14.4
			C284.2,452.7,298.3,474.5,315.7,484z"/>
		<path class="st2" d="M139.5,564.2c17.4,9.5,31.6,3.1,31.6-14.4c0-17.4-14.1-39.3-31.6-48.8c-17.4-9.5-31.6-3.1-31.6,14.4
			C107.9,532.8,122.1,554.7,139.5,564.2z"/>
		<path class="st2" d="M227.6,524.1c17.4,9.5,31.6,3.1,31.6-14.4c0-17.4-14.1-39.3-31.6-48.8c-17.4-9.5-31.6-3.1-31.6,14.4
			S210.2,514.6,227.6,524.1z"/>
		<path class="st2" d="M653.6,324.8c-17.4,9.5-31.6,31.3-31.6,48.8c0,17.4,14.1,23.9,31.6,14.4c17.4-9.5,31.6-31.3,31.6-48.8
			C685.2,321.8,671.1,315.3,653.6,324.8z"/>
		<path class="st2" d="M477.4,420.9c-17.4,9.5-31.6,31.3-31.6,48.8c0,17.4,14.1,23.9,31.6,14.4c17.4-9.5,31.6-31.3,31.6-48.8
			S494.9,411.4,477.4,420.9z"/>
		<path class="st2" d="M653.6,501.1c-17.4,9.5-31.6,31.3-31.6,48.8c0,17.4,14.1,23.9,31.6,14.4c17.4-9.5,31.6-31.3,31.6-48.8
			C685.2,498,671.1,491.6,653.6,501.1z"/>
		<path class="st2" d="M477.4,597.1c-17.4,9.5-31.6,31.3-31.6,48.8c0,17.4,14.1,23.9,31.6,14.4c17.4-9.5,31.6-31.3,31.6-48.8
			S494.9,587.6,477.4,597.1z"/>
		<path class="st2" d="M445.3,167.2c-24.6-18.2-65-18.6-90.4-1s-26,46.7-1.4,64.9s65,18.7,90.4,1
			C469.2,214.4,469.9,185.4,445.3,167.2z"/>
	</g>
</g>
</svg>
