<?xml version="1.0" encoding="utf-8"?>
<!-- Generator: Adobe Illustrator 24.3.0, SVG Export Plug-In . SVG Version: 6.00 Build 0)  -->
<svg version="1.1" id="_x32_" xmlns="http://www.w3.org/2000/svg" xmlns:xlink="http://www.w3.org/1999/xlink" x="0px" y="0px"
	 viewBox="0 0 800 800" style="enable-background:new 0 0 800 800;" xml:space="preserve">
<style type="text/css">
	.st0{fill:#63A088;}
</style>
<g>
	<path d="M702.4,165L450.7,14C435.1,4.7,417.5,0,400,0c-17.5,0-35.1,4.7-50.7,14L97.6,165c-29.7,17.8-47.9,49.9-47.9,84.6v300.9
		c0,34.6,18.2,66.7,47.9,84.6l251.7,151c15.6,9.4,33.2,14,50.7,14c17.6,0,35.1-4.7,50.7-14l251.7-151c29.7-17.8,47.9-49.9,47.9-84.6
		V249.6C750.3,214.9,732.1,182.8,702.4,165z M391.6,769.9L391.6,769.9c-9.4-1.2-18.7-4.2-27.1-9.3l-251.7-151
		c-20.8-12.5-33.5-35-33.5-59.2V249.6c0-9.4,1.9-18.5,5.5-26.9l306.8,184V769.9z M93.2,208c5.3-7,11.9-13,19.6-17.6l251.7-151
		c10.9-6.6,23.2-9.8,35.5-9.8c12.3,0,24.6,3.3,35.5,9.8l251.7,151c7.7,4.6,14.3,10.7,19.6,17.6L400,392L93.2,208z M720.7,550.4
		c0,24.2-12.7,46.7-33.5,59.2l-251.7,151c-8.4,5.1-17.7,8.1-27.1,9.3V406.6l306.8-184c3.6,8.4,5.5,17.5,5.5,26.9V550.4z"/>
	<g>
		<path class="st0" d="M720.7,249.6v300.9c0,24.2-12.7,46.7-33.5,59.2l-251.7,151c-8.4,5.1-17.7,8.1-27.1,9.3V406.6l306.8-184
			C718.8,231,720.7,240.1,720.7,249.6z"/>
		<path class="st0" d="M391.6,406.6v363.3h0c-9.4-1.2-18.6-4.2-27.1-9.3l-251.7-151c-20.8-12.5-33.5-35-33.5-59.2V249.6
			c0-9.4,1.9-18.5,5.5-26.9L391.6,406.6z"/>
		<path class="st0" d="M706.8,208L400,392L93.2,208c5.3-7,11.9-13,19.6-17.6l251.7-151c10.9-6.6,23.2-9.8,35.5-9.8
			c12.3,0,24.6,3.3,35.5,9.8l251.7,151C694.9,195,701.5,201,706.8,208z"/>
	</g>
	<path d="M574.9,178.9c-16.9-12.5-44.7-12.8-62.2-0.7c-17.4,12.1-17.9,32.1-1,44.6c16.9,12.5,44.7,12.8,62.2,0.7
		C591.4,211.4,591.8,191.4,574.9,178.9z"/>
	<path d="M287,175.5c-16.9-12.5-44.7-12.8-62.2-0.7c-17.4,12.1-17.9,32.1-1,44.6c16.9,12.5,44.7,12.8,62.2,0.7
		C303.4,207.9,303.9,188,287,175.5z"/>
	<path d="M139.5,388c17.4,9.5,31.6,3.1,31.6-14.4c0-17.4-14.1-39.3-31.6-48.8c-17.4-9.5-31.6-3.1-31.6,14.4
		C107.9,356.6,122.1,378.5,139.5,388z"/>
	<path d="M315.7,484c17.4,9.5,31.6,3.1,31.6-14.3c0-17.4-14.1-39.3-31.6-48.8c-17.4-9.5-31.6-3.1-31.6,14.4
		C284.2,452.7,298.3,474.5,315.7,484z"/>
	<path d="M139.5,564.2c17.4,9.5,31.6,3.1,31.6-14.4c0-17.4-14.1-39.3-31.6-48.8c-17.4-9.5-31.6-3.1-31.6,14.4
		C107.9,532.9,122.1,554.7,139.5,564.2z"/>
	<path d="M315.7,660.2c17.4,9.5,31.6,3.1,31.6-14.4c0-17.4-14.1-39.3-31.6-48.8c-17.4-9.5-31.6-3.1-31.6,14.4
		C284.2,628.9,298.3,650.7,315.7,660.2z"/>
	<path d="M227.6,524.1c17.4,9.5,31.6,3.1,31.6-14.4c0-17.4-14.1-39.3-31.6-48.8c-17.4-9.5-31.6-3.1-31.6,14.3
		C196,492.8,210.2,514.6,227.6,524.1z"/>
	<path d="M647.7,319.6c-17.4,9.5-31.6,31.3-31.6,48.8c0,17.4,14.1,23.9,31.6,14.4c17.4-9.5,31.6-31.3,31.6-48.8
		S665.1,310.1,647.7,319.6z"/>
	<path d="M647.7,422.4c-17.4,9.5-31.6,31.3-31.6,48.8c0,17.4,14.1,23.9,31.6,14.4c17.4-9.5,31.6-31.3,31.6-48.8
		C679.3,419.3,665.1,412.9,647.7,422.4z"/>
	<path d="M494.3,472.9c17.4-9.5,31.6-31.3,31.6-48.8c0-17.4-14.1-23.9-31.6-14.4c-17.4,9.5-31.6,31.3-31.6,48.8
		C462.8,476,476.9,482.4,494.3,472.9z"/>
	<path d="M647.7,525.2c-17.4,9.5-31.6,31.3-31.6,48.8c0,17.4,14.1,23.9,31.6,14.4c17.4-9.5,31.6-31.3,31.6-48.8
		C679.3,522.1,665.1,515.7,647.7,525.2z"/>
	<path d="M494.3,615.3c-17.4,9.5-31.6,31.3-31.6,48.8c0,17.4,14.1,23.9,31.6,14.3c17.4-9.5,31.6-31.3,31.6-48.8
		C525.9,612.2,511.7,605.8,494.3,615.3z"/>
	<path d="M496.2,512.5c-17.4,9.5-31.6,31.3-31.6,48.8c0,17.4,14.1,23.9,31.6,14.4c17.4-9.5,31.6-31.3,31.6-48.8
		C527.8,509.5,513.6,503,496.2,512.5z"/>
</g>
</svg>
