<?xml version="1.0" encoding="utf-8"?>
<!-- Generator: Adobe Illustrator 24.3.0, SVG Export Plug-In . SVG Version: 6.00 Build 0)  -->
<svg version="1.1" id="_x32_" xmlns="http://www.w3.org/2000/svg" xmlns:xlink="http://www.w3.org/1999/xlink" x="0px" y="0px"
	 viewBox="0 0 800 800" style="enable-background:new 0 0 800 800;" xml:space="preserve">
<style type="text/css">
	.st0{fill:#63A088;}
</style>
<g>
	<path d="M702.4,165L450.7,14C435.1,4.7,417.5,0,400,0c-17.6,0-35.1,4.7-50.7,14L97.6,165c-29.7,17.8-47.9,49.9-47.9,84.6v300.9
		c0,34.6,18.2,66.7,47.9,84.6l251.7,151c15.6,9.4,33.2,14,50.7,14c17.5,0,35.1-4.7,50.7-14l251.7-151c29.7-17.8,47.9-49.9,47.9-84.6
		V249.6C750.3,214.9,732.1,182.8,702.4,165z M391.6,769.9c-9.4-1.2-18.6-4.2-27.1-9.3l-251.7-151c-20.8-12.5-33.5-34.9-33.5-59.2
		V249.6c0-9.4,1.9-18.5,5.5-26.9l306.8,184V769.9z M93.2,208c5.3-7,11.9-13,19.6-17.6l251.7-151c10.9-6.6,23.2-9.8,35.5-9.8
		c12.3,0,24.6,3.3,35.5,9.8l251.7,151c7.7,4.6,14.3,10.7,19.6,17.6L400,392L93.2,208z M720.7,550.4c0,24.2-12.7,46.7-33.5,59.2
		l-251.7,151c-8.4,5-17.6,8.1-27.1,9.3V406.6l306.8-184c3.6,8.4,5.5,17.5,5.5,26.9V550.4z"/>
	<g>
		<path class="st0" d="M720.7,249.6v300.9c0,24.2-12.7,46.7-33.5,59.2l-251.7,151c-8.4,5-17.6,8.1-27.1,9.3V406.6l306.8-184
			C718.8,231,720.7,240.1,720.7,249.6z"/>
		<path class="st0" d="M391.6,406.6v363.3c-9.4-1.2-18.6-4.2-27.1-9.3l-251.7-151c-20.8-12.5-33.5-34.9-33.5-59.2V249.6
			c0-9.4,1.9-18.5,5.5-26.9L391.6,406.6z"/>
		<path class="st0" d="M706.8,208L400,392L93.2,208c5.3-7,11.9-13,19.6-17.6l251.7-151c10.9-6.6,23.2-9.8,35.5-9.8
			c12.3,0,24.6,3.3,35.5,9.8l251.7,151C694.9,195,701.5,201,706.8,208z"/>
	</g>
	<path d="M162.4,415.3c19.6,8.1,36.7-2.4,38-23.4c1.3-21-13.5-44.5-33.2-52.6c-19.6-8.1-36.7,2.4-38,23.4
		C128,383.7,142.8,407.2,162.4,415.3z"/>
	<path d="M315.8,659c19.6,8.1,36.7-2.4,38-23.4c1.3-21-13.5-44.5-33.1-52.6c-19.6-8.1-36.7,2.4-38,23.4
		C281.4,627.4,296.2,650.9,315.8,659z"/>
	<path d="M430.5,69.8c-15.4-11.4-40.7-11.7-56.5-0.6c-15.8,11-16.2,29.2-0.9,40.5c15.4,11.4,40.7,11.7,56.5,0.6
		C445.5,99.3,445.9,81.2,430.5,69.8z"/>
	<path d="M597.4,180.9c-15.4-11.4-40.7-11.7-56.5-0.6c-15.9,11-16.3,29.2-0.9,40.5c15.4,11.4,40.7,11.7,56.5,0.6
		C612.4,210.4,612.8,192.3,597.4,180.9z"/>
	<path d="M258.8,177.4c-15.4-11.4-40.7-11.7-56.5-0.6c-15.8,11-16.2,29.2-0.9,40.5c15.4,11.4,40.7,11.7,56.5,0.6
		C273.7,207,274.1,188.8,258.8,177.4z"/>
	<path d="M425.7,288.5c-15.4-11.4-40.7-11.7-56.5-0.6c-15.8,11-16.2,29.2-0.9,40.5c15.4,11.4,40.7,11.7,56.5,0.6
		C440.7,318,441.1,299.9,425.7,288.5z"/>
	<path d="M653.7,324.8c-17.4,9.5-31.6,31.3-31.6,48.8c0,17.4,14.1,23.9,31.6,14.4c17.4-9.5,31.6-31.3,31.6-48.8
		C685.2,321.8,671.1,315.3,653.7,324.8z"/>
	<path d="M477.4,420.9c-17.4,9.5-31.6,31.3-31.6,48.8c0,17.4,14.1,23.9,31.6,14.4c17.4-9.5,31.6-31.3,31.6-48.8
		C509,417.8,494.9,411.4,477.4,420.9z"/>
	<path d="M653.7,501.1c-17.4,9.5-31.6,31.3-31.6,48.8c0,17.4,14.1,23.9,31.6,14.4c17.4-9.5,31.6-31.3,31.6-48.8
		C685.2,498,671.1,491.6,653.7,501.1z"/>
	<path d="M477.4,597.1c-17.4,9.5-31.6,31.3-31.6,48.8c0,17.4,14.1,23.9,31.6,14.4c17.4-9.5,31.6-31.3,31.6-48.8
		C509,594,494.9,587.6,477.4,597.1z"/>
	<path d="M565.5,461c-17.4,9.5-31.6,31.3-31.6,48.8c0,17.4,14.1,23.9,31.6,14.4c17.4-9.5,31.6-31.3,31.6-48.8
		C597.1,457.9,583,451.5,565.5,461z"/>
</g>
</svg>
