<?xml version="1.0" encoding="utf-8"?>
<!-- Generator: Adobe Illustrator 24.3.0, SVG Export Plug-In . SVG Version: 6.00 Build 0)  -->
<svg version="1.1" id="_x32_" xmlns="http://www.w3.org/2000/svg" xmlns:xlink="http://www.w3.org/1999/xlink" x="0px" y="0px"
	 viewBox="0 0 800 800" style="enable-background:new 0 0 800 800;" xml:space="preserve">
<style type="text/css">
	.st0{fill:#63A088;}
</style>
<g>
	<path d="M702.4,165L450.7,14C435.1,4.7,417.5,0,400,0c-17.5,0-35.1,4.7-50.7,14L97.6,165c-29.7,17.8-47.9,49.9-47.9,84.6v300.9
		c0,34.6,18.2,66.7,47.9,84.6l251.7,151c15.6,9.4,33.2,14,50.7,14c17.5,0,35.1-4.7,50.7-14l251.7-151c29.7-17.8,47.9-49.9,47.9-84.6
		V249.6C750.3,214.9,732.1,182.8,702.4,165z M391.5,769.9c-9.4-1.2-18.6-4.2-27.1-9.3l-251.7-151c-20.8-12.5-33.5-35-33.5-59.2
		V249.6c0-9.4,1.9-18.5,5.5-26.9l306.8,184V769.9z M93.2,208c5.3-7,11.9-13,19.6-17.6l251.7-151c10.9-6.6,23.2-9.8,35.5-9.8
		s24.6,3.3,35.5,9.8l251.7,151c7.7,4.6,14.3,10.7,19.6,17.6L400,392L93.2,208z M720.7,550.4L720.7,550.4c0,24.2-12.7,46.7-33.5,59.2
		l-251.7,151c-8.4,5-17.6,8.1-27,9.3V406.6l306.8-184c3.5,8.4,5.5,17.5,5.5,26.9V550.4z"/>
	<g>
		<path class="st0" d="M720.7,249.6v300.9h0c0,24.2-12.7,46.7-33.5,59.2l-251.7,151c-8.4,5-17.6,8.1-27,9.3V406.6l306.8-184
			C718.8,231,720.7,240.1,720.7,249.6z"/>
		<path class="st0" d="M391.5,406.6v363.3c-9.4-1.2-18.6-4.2-27.1-9.3l-251.7-151c-20.8-12.5-33.5-35-33.5-59.2V249.6
			c0-9.4,1.9-18.5,5.5-26.9L391.5,406.6z"/>
		<path class="st0" d="M706.8,208L400,392L93.2,208c5.3-7,11.9-13,19.6-17.6l251.7-151c10.9-6.6,23.2-9.8,35.5-9.8
			s24.6,3.3,35.5,9.8l251.7,151C694.9,195,701.5,201,706.8,208z"/>
	</g>
	<path d="M644.7,309.6c-17.4,9.5-31.6,31.3-31.6,48.8c0,17.4,14.1,23.9,31.6,14.4c17.4-9.5,31.6-31.3,31.6-48.8
		C676.2,306.6,662.1,300.1,644.7,309.6z"/>
	<path d="M644.7,412.4c-17.4,9.5-31.6,31.3-31.6,48.8c0,17.4,14.1,23.9,31.6,14.4c17.4-9.5,31.6-31.3,31.6-48.8
		C676.2,409.4,662.1,402.9,644.7,412.4z"/>
	<path d="M491.2,462.9c17.4-9.5,31.6-31.3,31.6-48.8c0-17.4-14.1-23.9-31.6-14.4c-17.4,9.5-31.6,31.3-31.6,48.8
		C459.7,466,473.8,472.4,491.2,462.9z"/>
	<path d="M644.7,515.2c-17.4,9.5-31.6,31.3-31.6,48.8c0,17.4,14.1,23.9,31.6,14.4c17.4-9.5,31.6-31.3,31.6-48.8
		C676.2,512.1,662.1,505.7,644.7,515.2z"/>
	<path d="M491.2,605.3c-17.4,9.5-31.6,31.3-31.6,48.8c0,17.4,14.1,23.9,31.6,14.4c17.4-9.5,31.6-31.3,31.6-48.8
		C522.8,602.2,508.7,595.8,491.2,605.3z"/>
	<path d="M493.1,502.5c-17.4,9.5-31.6,31.3-31.6,48.8c0,17.4,14.1,23.9,31.6,14.4c17.4-9.5,31.6-31.3,31.6-48.8
		S510.6,493,493.1,502.5z"/>
	<path d="M430.5,69.8c-15.4-11.4-40.7-11.7-56.5-0.6c-15.8,11-16.2,29.2-0.9,40.5c15.4,11.4,40.7,11.7,56.5,0.6
		C445.4,99.3,445.9,81.2,430.5,69.8z"/>
	<path d="M597.4,180.9c-15.4-11.4-40.7-11.7-56.5-0.7c-15.8,11-16.2,29.2-0.9,40.5c15.4,11.4,40.7,11.7,56.5,0.6
		C612.4,210.4,612.8,192.3,597.4,180.9z"/>
	<path d="M258.8,177.4c-15.4-11.4-40.7-11.7-56.5-0.6c-15.9,11-16.3,29.2-0.9,40.5c15.4,11.4,40.7,11.7,56.5,0.6
		C273.7,207,274.1,188.8,258.8,177.4z"/>
	<path d="M425.7,288.5c-15.4-11.4-40.7-11.7-56.5-0.6c-15.8,11-16.3,29.2-0.9,40.5c15.4,11.4,40.6,11.7,56.5,0.6
		C440.6,318,441,299.9,425.7,288.5z"/>
	<path d="M427.1,179.8c-14.8-11-39.3-11.3-54.6-0.6c-15.3,10.6-15.7,28.2-0.9,39.2c14.8,11,39.3,11.3,54.6,0.6
		C441.6,208.4,442,190.8,427.1,179.8z"/>
	<path d="M139.5,388c17.4,9.5,31.6,3.1,31.6-14.4c0-17.4-14.1-39.3-31.6-48.8c-17.4-9.5-31.6-3.1-31.6,14.4
		C107.9,356.6,122.1,378.5,139.5,388z"/>
	<path d="M315.7,660.2c17.4,9.5,31.6,3.1,31.6-14.4c0-17.4-14.1-39.3-31.6-48.8c-17.4-9.5-31.6-3.1-31.6,14.4
		C284.2,628.9,298.3,650.7,315.7,660.2z"/>
	<path d="M227.6,524.1c17.4,9.5,31.6,3.1,31.6-14.4c0-17.4-14.1-39.3-31.6-48.8c-17.4-9.5-31.6-3.1-31.6,14.4
		C196.1,492.8,210.2,514.6,227.6,524.1z"/>
</g>
</svg>
